<svg xmlns="http://www.w3.org/2000/svg" xmlns:xlink="http://www.w3.org/1999/xlink" version="1.1" width="1000" height="1000" viewBox="0 0 1000 1000" xml:space="preserve">
<desc>Created with Fabric.js 3.5.0</desc>
<defs>
</defs>
<rect x="0" y="0" width="100%" height="100%" fill="rgba(0,0,0,0)"/>
<g transform="matrix(0.9091 0 0 0.9091 500.0045 500.0045)" id="465999">
<g style="" vector-effect="non-scaling-stroke">
		<g transform="matrix(1 0 0 1 -450 -450)">
<rect style="stroke: none; stroke-width: 1; stroke-dasharray: none; stroke-linecap: butt; stroke-dashoffset: 0; stroke-linejoin: miter; stroke-miterlimit: 4; is-custom-font: none; font-file-url: none; fill: rgb(156,163,175); fill-rule: nonzero; opacity: 1;" x="-50" y="-50" rx="0" ry="0" width="100" height="100"/>
</g>
		<g transform="matrix(1.7756 0 0 1.7756 0.0071 0.0081)" id="895805">
<path style="stroke: none; stroke-width: 1; stroke-dasharray: none; stroke-linecap: butt; stroke-dashoffset: 0; stroke-linejoin: miter; stroke-miterlimit: 4; is-custom-font: none; font-file-url: none; fill: rgb(156,163,175); fill-rule: nonzero; opacity: 1;" vector-effect="non-scaling-stroke" transform=" translate(-224, -256)" d="M 304 128 a 80 80 0 1 0 -160 0 a 80 80 0 1 0 160 0 z M 96 128 a 128 128 0 1 1 256 0 A 128 128 0 1 1 96 128 z M 49.3 464 H 398.7 c -8.9 -63.3 -63.3 -112 -129 -112 H 178.3 c -65.7 0 -120.1 48.7 -129 112 z M 0 482.3 C 0 383.8 79.8 304 178.3 304 h 91.4 C 368.2 304 448 383.8 448 482.3 c 0 16.4 -13.3 29.7 -29.7 29.7 H 29.7 C 13.3 512 0 498.7 0 482.3 z" stroke-linecap="round"/>
</g>
		<g transform="matrix(1 0 0 1 -450 -450)" id="437889">
<rect style="stroke: none; stroke-width: 1; stroke-dasharray: none; stroke-linecap: butt; stroke-dashoffset: 0; stroke-linejoin: miter; stroke-miterlimit: 4; is-custom-font: none; font-file-url: none; fill: rgb(156,163,175); fill-rule: nonzero; opacity: 1;" vector-effect="non-scaling-stroke" x="-50" y="-50" rx="0" ry="0" width="100" height="100"/>
</g>
		<g transform="matrix(1.7756 0 0 1.7756 0.0071 0.0081)" id="895805">
<path style="stroke: none; stroke-width: 1; stroke-dasharray: none; stroke-linecap: butt; stroke-dashoffset: 0; stroke-linejoin: miter; stroke-miterlimit: 4; is-custom-font: none; font-file-url: none; fill: rgb(156,163,175); fill-rule: nonzero; opacity: 1;" vector-effect="non-scaling-stroke" transform=" translate(-224, -256)" d="M 304 128 a 80 80 0 1 0 -160 0 a 80 80 0 1 0 160 0 z M 96 128 a 128 128 0 1 1 256 0 A 128 128 0 1 1 96 128 z M 49.3 464 H 398.7 c -8.9 -63.3 -63.3 -112 -129 -112 H 178.3 c -65.7 0 -120.1 48.7 -129 112 z M 0 482.3 C 0 383.8 79.8 304 178.3 304 h 91.4 C 368.2 304 448 383.8 448 482.3 c 0 16.4 -13.3 29.7 -29.7 29.7 H 29.7 C 13.3 512 0 498.7 0 482.3 z" stroke-linecap="round"/>
</g>
		<g transform="matrix(1 0 0 1 -450 -450)" id="59655">
<rect style="stroke: none; stroke-width: 1; stroke-dasharray: none; stroke-linecap: butt; stroke-dashoffset: 0; stroke-linejoin: miter; stroke-miterlimit: 4; is-custom-font: none; font-file-url: none; fill: rgb(156,163,175); fill-rule: nonzero; opacity: 1;" vector-effect="non-scaling-stroke" x="-50" y="-50" rx="0" ry="0" width="100" height="100"/>
</g>
		<g transform="matrix(1.7756 0 0 1.7756 0.0071 0.0081)" id="895805">
<path style="stroke: none; stroke-width: 1; stroke-dasharray: none; stroke-linecap: butt; stroke-dashoffset: 0; stroke-linejoin: miter; stroke-miterlimit: 4; is-custom-font: none; font-file-url: none; fill: rgb(156,163,175); fill-rule: nonzero; opacity: 1;" vector-effect="non-scaling-stroke" transform=" translate(-224, -256)" d="M 304 128 a 80 80 0 1 0 -160 0 a 80 80 0 1 0 160 0 z M 96 128 a 128 128 0 1 1 256 0 A 128 128 0 1 1 96 128 z M 49.3 464 H 398.7 c -8.9 -63.3 -63.3 -112 -129 -112 H 178.3 c -65.7 0 -120.1 48.7 -129 112 z M 0 482.3 C 0 383.8 79.8 304 178.3 304 h 91.4 C 368.2 304 448 383.8 448 482.3 c 0 16.4 -13.3 29.7 -29.7 29.7 H 29.7 C 13.3 512 0 498.7 0 482.3 z" stroke-linecap="round"/>
</g>
</g>
</g>
</svg>